<mxfile host="65bd71144e">
    <diagram id="Usutghok-qVcHO65mKV_" name="Страница 1">
        <mxGraphModel dx="467" dy="251" grid="1" gridSize="10" guides="1" tooltips="1" connect="1" arrows="1" fold="1" page="1" pageScale="1" pageWidth="827" pageHeight="1169" math="0" shadow="0">
            <root>
                <mxCell id="0"/>
                <mxCell id="1" parent="0"/>
                <mxCell id="31" value="" style="edgeStyle=none;html=1;fontSize=14;" edge="1" parent="1" source="3" target="20">
                    <mxGeometry relative="1" as="geometry"/>
                </mxCell>
                <mxCell id="3" value="&lt;font style=&quot;font-size: 24px&quot;&gt;start&lt;/font&gt;" style="ellipse;whiteSpace=wrap;html=1;" vertex="1" parent="1">
                    <mxGeometry x="150" y="10" width="160" height="30" as="geometry"/>
                </mxCell>
                <mxCell id="22" value="" style="edgeStyle=none;html=1;fontSize=12;" edge="1" parent="1" source="4" target="21">
                    <mxGeometry relative="1" as="geometry"/>
                </mxCell>
                <mxCell id="4" value="&lt;font size=&quot;3&quot;&gt;i =0;&lt;br&gt;&lt;div style=&quot;&quot;&gt;&lt;br&gt;&lt;/div&gt;&lt;/font&gt;" style="whiteSpace=wrap;html=1;fontSize=24;align=center;" vertex="1" parent="1">
                    <mxGeometry x="160" y="120" width="140" height="30" as="geometry"/>
                </mxCell>
                <mxCell id="32" value="" style="edgeStyle=none;html=1;fontSize=14;" edge="1" parent="1" source="20">
                    <mxGeometry relative="1" as="geometry">
                        <mxPoint x="230" y="120" as="targetPoint"/>
                    </mxGeometry>
                </mxCell>
                <mxCell id="20" value="&lt;font style=&quot;font-size: 14px&quot;&gt;input N&lt;/font&gt;" style="shape=parallelogram;perimeter=parallelogramPerimeter;whiteSpace=wrap;html=1;fixedSize=1;fontSize=18;" vertex="1" parent="1">
                    <mxGeometry x="150" y="70" width="160" height="30" as="geometry"/>
                </mxCell>
                <mxCell id="24" value="" style="edgeStyle=none;html=1;fontSize=12;" edge="1" parent="1" source="21" target="23">
                    <mxGeometry relative="1" as="geometry"/>
                </mxCell>
                <mxCell id="26" value="yes" style="edgeLabel;html=1;align=center;verticalAlign=middle;resizable=0;points=[];fontSize=12;" vertex="1" connectable="0" parent="24">
                    <mxGeometry x="-0.1273" y="-2" relative="1" as="geometry">
                        <mxPoint as="offset"/>
                    </mxGeometry>
                </mxCell>
                <mxCell id="36" value="no" style="edgeStyle=none;html=1;fontSize=14;exitX=1;exitY=0.5;exitDx=0;exitDy=0;entryX=0;entryY=0.5;entryDx=0;entryDy=0;" edge="1" parent="1" source="21" target="49">
                    <mxGeometry x="-0.6511" relative="1" as="geometry">
                        <mxPoint x="450" y="195" as="targetPoint"/>
                        <Array as="points">
                            <mxPoint x="340" y="195"/>
                        </Array>
                        <mxPoint x="1" as="offset"/>
                    </mxGeometry>
                </mxCell>
                <mxCell id="21" value="&lt;font style=&quot;font-size: 12px&quot;&gt;i &amp;lt; N?&lt;/font&gt;" style="rhombus;whiteSpace=wrap;html=1;fontSize=24;" vertex="1" parent="1">
                    <mxGeometry x="177.5" y="170" width="105" height="50" as="geometry"/>
                </mxCell>
                <mxCell id="51" value="" style="edgeStyle=none;html=1;fontFamily=Helvetica;fontSize=14;" edge="1" parent="1" source="23" target="34">
                    <mxGeometry relative="1" as="geometry"/>
                </mxCell>
                <mxCell id="23" value="&lt;font style=&quot;font-size: 15px ; line-height: 1.1&quot;&gt;input array[i];&lt;br&gt;&lt;br&gt;&lt;/font&gt;" style="whiteSpace=wrap;html=1;fontSize=24;align=center;" vertex="1" parent="1">
                    <mxGeometry x="170" y="250" width="120" height="50" as="geometry"/>
                </mxCell>
                <mxCell id="39" value="yes" style="edgeStyle=none;html=1;fontFamily=Helvetica;fontSize=14;" edge="1" parent="1" source="34" target="38">
                    <mxGeometry relative="1" as="geometry"/>
                </mxCell>
                <mxCell id="52" value="no" style="edgeStyle=none;html=1;exitX=1;exitY=0.5;exitDx=0;exitDy=0;fontFamily=Helvetica;fontSize=14;" edge="1" parent="1" source="34">
                    <mxGeometry x="-0.9286" relative="1" as="geometry">
                        <mxPoint x="230" y="510" as="targetPoint"/>
                        <Array as="points">
                            <mxPoint x="340" y="370"/>
                            <mxPoint x="340" y="510"/>
                        </Array>
                        <mxPoint as="offset"/>
                    </mxGeometry>
                </mxCell>
                <mxCell id="34" value="&lt;div style=&quot;color: rgb(212 , 212 , 212) ; background-color: rgb(30 , 30 , 30) ; font-size: 12px ; line-height: 18px&quot;&gt;array[i].Length &amp;lt;= &lt;span style=&quot;color: rgb(181 , 206 , 168)&quot;&gt;3?&lt;/span&gt;&lt;/div&gt;" style="rhombus;whiteSpace=wrap;html=1;fontSize=14;rounded=0;" vertex="1" parent="1">
                    <mxGeometry x="150" y="330" width="160" height="80" as="geometry"/>
                </mxCell>
                <mxCell id="43" value="" style="edgeStyle=none;html=1;fontFamily=Helvetica;fontSize=14;" edge="1" parent="1" source="38" target="42">
                    <mxGeometry relative="1" as="geometry"/>
                </mxCell>
                <mxCell id="38" value="sum++;" style="whiteSpace=wrap;html=1;fontSize=14;rounded=0;" vertex="1" parent="1">
                    <mxGeometry x="170" y="460" width="120" height="30" as="geometry"/>
                </mxCell>
                <mxCell id="53" style="edgeStyle=none;html=1;exitX=0;exitY=0.5;exitDx=0;exitDy=0;fontFamily=Helvetica;fontSize=14;entryX=0;entryY=0.5;entryDx=0;entryDy=0;" edge="1" parent="1" source="42" target="21">
                    <mxGeometry relative="1" as="geometry">
                        <mxPoint x="80" y="260" as="targetPoint"/>
                        <Array as="points">
                            <mxPoint x="80" y="545"/>
                            <mxPoint x="80" y="380"/>
                            <mxPoint x="80" y="195"/>
                        </Array>
                    </mxGeometry>
                </mxCell>
                <mxCell id="42" value="i++;" style="whiteSpace=wrap;html=1;fontSize=14;rounded=0;" vertex="1" parent="1">
                    <mxGeometry x="170" y="530" width="120" height="30" as="geometry"/>
                </mxCell>
                <mxCell id="55" value="" style="edgeStyle=none;html=1;fontFamily=Helvetica;fontSize=14;" edge="1" parent="1" source="49" target="54">
                    <mxGeometry relative="1" as="geometry"/>
                </mxCell>
                <mxCell id="56" value="yes" style="edgeLabel;html=1;align=center;verticalAlign=middle;resizable=0;points=[];fontSize=14;fontFamily=Helvetica;" vertex="1" connectable="0" parent="55">
                    <mxGeometry x="-0.1071" y="-1" relative="1" as="geometry">
                        <mxPoint as="offset"/>
                    </mxGeometry>
                </mxCell>
                <mxCell id="58" value="" style="edgeStyle=none;html=1;fontFamily=Helvetica;fontSize=14;" edge="1" parent="1" source="49" target="57">
                    <mxGeometry relative="1" as="geometry"/>
                </mxCell>
                <mxCell id="78" value="no" style="edgeLabel;html=1;align=center;verticalAlign=middle;resizable=0;points=[];fontSize=14;fontFamily=Helvetica;" vertex="1" connectable="0" parent="58">
                    <mxGeometry x="-0.3091" relative="1" as="geometry">
                        <mxPoint y="1" as="offset"/>
                    </mxGeometry>
                </mxCell>
                <mxCell id="49" value="sum==0?" style="rhombus;whiteSpace=wrap;html=1;fontSize=14;rounded=0;" vertex="1" parent="1">
                    <mxGeometry x="414" y="157.5" width="110" height="75" as="geometry"/>
                </mxCell>
                <mxCell id="75" style="edgeStyle=none;html=1;exitX=1;exitY=0.5;exitDx=0;exitDy=0;entryX=0.5;entryY=0;entryDx=0;entryDy=0;fontFamily=Helvetica;fontSize=14;" edge="1" parent="1" source="54" target="74">
                    <mxGeometry relative="1" as="geometry">
                        <Array as="points">
                            <mxPoint x="800" y="195"/>
                        </Array>
                    </mxGeometry>
                </mxCell>
                <mxCell id="54" value="Print &quot;[]&quot;" style="shape=document;whiteSpace=wrap;html=1;boundedLbl=1;fontFamily=Helvetica;fontSize=14;" vertex="1" parent="1">
                    <mxGeometry x="580" y="155" width="140" height="80" as="geometry"/>
                </mxCell>
                <mxCell id="60" value="" style="edgeStyle=none;html=1;fontFamily=Helvetica;fontSize=14;" edge="1" parent="1" source="57" target="59">
                    <mxGeometry relative="1" as="geometry"/>
                </mxCell>
                <mxCell id="57" value="i=0; j=0;" style="whiteSpace=wrap;html=1;fontSize=14;rounded=0;" vertex="1" parent="1">
                    <mxGeometry x="409" y="260" width="120" height="30" as="geometry"/>
                </mxCell>
                <mxCell id="70" value="yes" style="edgeStyle=none;html=1;fontFamily=Helvetica;fontSize=14;" edge="1" parent="1" source="59" target="61">
                    <mxGeometry relative="1" as="geometry"/>
                </mxCell>
                <mxCell id="73" value="" style="edgeStyle=none;html=1;fontFamily=Helvetica;fontSize=14;" edge="1" parent="1" source="59" target="72">
                    <mxGeometry relative="1" as="geometry"/>
                </mxCell>
                <mxCell id="59" value="&lt;font style=&quot;font-size: 12px&quot;&gt;i &amp;lt; N?&lt;/font&gt;" style="rhombus;whiteSpace=wrap;html=1;fontSize=24;" vertex="1" parent="1">
                    <mxGeometry x="399" y="310" width="140" height="50" as="geometry"/>
                </mxCell>
                <mxCell id="63" value="yes" style="edgeStyle=none;html=1;fontFamily=Helvetica;fontSize=14;" edge="1" parent="1" source="61" target="62">
                    <mxGeometry relative="1" as="geometry"/>
                </mxCell>
                <mxCell id="68" style="edgeStyle=none;html=1;exitX=1;exitY=0.5;exitDx=0;exitDy=0;fontFamily=Helvetica;fontSize=14;" edge="1" parent="1" source="61">
                    <mxGeometry relative="1" as="geometry">
                        <mxPoint x="469" y="590" as="targetPoint"/>
                        <Array as="points">
                            <mxPoint x="600" y="430"/>
                            <mxPoint x="600" y="590"/>
                        </Array>
                    </mxGeometry>
                </mxCell>
                <mxCell id="69" value="no" style="edgeLabel;html=1;align=center;verticalAlign=middle;resizable=0;points=[];fontSize=14;fontFamily=Helvetica;" vertex="1" connectable="0" parent="68">
                    <mxGeometry x="-0.9091" y="-3" relative="1" as="geometry">
                        <mxPoint x="5" y="-3" as="offset"/>
                    </mxGeometry>
                </mxCell>
                <mxCell id="61" value="&lt;div style=&quot;color: rgb(212 , 212 , 212) ; background-color: rgb(30 , 30 , 30) ; font-size: 12px ; line-height: 18px&quot;&gt;array[i].Length &amp;lt;= &lt;span style=&quot;color: rgb(181 , 206 , 168)&quot;&gt;3?&lt;/span&gt;&lt;/div&gt;" style="rhombus;whiteSpace=wrap;html=1;fontSize=14;rounded=0;" vertex="1" parent="1">
                    <mxGeometry x="393.5" y="390" width="151" height="80" as="geometry"/>
                </mxCell>
                <mxCell id="65" value="" style="edgeStyle=none;html=1;fontFamily=Helvetica;fontSize=14;" edge="1" parent="1" source="62" target="64">
                    <mxGeometry relative="1" as="geometry"/>
                </mxCell>
                <mxCell id="62" value="arraynew[j] = array[i];&lt;br&gt;j++;" style="whiteSpace=wrap;html=1;fontSize=14;rounded=0;" vertex="1" parent="1">
                    <mxGeometry x="399" y="510" width="140" height="60" as="geometry"/>
                </mxCell>
                <mxCell id="71" style="edgeStyle=none;html=1;exitX=0;exitY=0.5;exitDx=0;exitDy=0;entryX=0;entryY=0.5;entryDx=0;entryDy=0;fontFamily=Helvetica;fontSize=14;" edge="1" parent="1" source="64" target="59">
                    <mxGeometry relative="1" as="geometry">
                        <Array as="points">
                            <mxPoint x="360" y="630"/>
                            <mxPoint x="360" y="335"/>
                        </Array>
                    </mxGeometry>
                </mxCell>
                <mxCell id="64" value="i++;" style="whiteSpace=wrap;html=1;fontSize=14;rounded=0;" vertex="1" parent="1">
                    <mxGeometry x="399" y="610" width="140" height="40" as="geometry"/>
                </mxCell>
                <mxCell id="76" style="edgeStyle=none;html=1;exitX=1;exitY=0.5;exitDx=0;exitDy=0;entryX=0.5;entryY=1;entryDx=0;entryDy=0;fontFamily=Helvetica;fontSize=14;" edge="1" parent="1" source="72" target="74">
                    <mxGeometry relative="1" as="geometry">
                        <Array as="points">
                            <mxPoint x="800" y="335"/>
                        </Array>
                    </mxGeometry>
                </mxCell>
                <mxCell id="72" value="Print arraynew[]" style="shape=document;whiteSpace=wrap;html=1;boundedLbl=1;fontFamily=Helvetica;fontSize=14;" vertex="1" parent="1">
                    <mxGeometry x="590" y="295" width="120" height="80" as="geometry"/>
                </mxCell>
                <mxCell id="74" value="END" style="ellipse;whiteSpace=wrap;html=1;fontFamily=Helvetica;fontSize=14;" vertex="1" parent="1">
                    <mxGeometry x="740" y="235" width="120" height="55" as="geometry"/>
                </mxCell>
            </root>
        </mxGraphModel>
    </diagram>
</mxfile>